<?xml version="1.0" encoding="UTF-8" standalone="no"?>
<!DOCTYPE svg PUBLIC "-//W3C//DTD SVG 1.1//EN"
 "http://www.w3.org/Graphics/SVG/1.1/DTD/svg11.dtd">
<!-- Generated by graphviz version 2.40.1 (20161225.0304)
 -->
<!-- Title: %3 Pages: 1 -->
<svg width="1129pt" height="1057pt"
 viewBox="0.00 0.00 1129.00 1057.00" xmlns="http://www.w3.org/2000/svg" xmlns:xlink="http://www.w3.org/1999/xlink">
<g id="graph0" class="graph" transform="scale(1 1) rotate(0) translate(4 1053)">
<title>%3</title>
<polygon fill="#ffffff" stroke="transparent" points="-4,4 -4,-1053 1125,-1053 1125,4 -4,4"/>
<!-- adult -->
<g id="adult" class="node">
<title>adult</title>
<ellipse fill="#ff0000" fill-opacity="0.501961" stroke="#000000" cx="349.5" cy="-596.5" rx="75.8212" ry="75.8212"/>
<text text-anchor="middle" x="349.5" y="-586.5" font-family="arial" font-size="40.00" fill="#000000">Adult</text>
</g>
<!-- invis_egg -->
<g id="node8" class="node">
<title>invis_egg</title>
</g>
<!-- adult&#45;&gt;invis_egg -->
<g id="egg_adult" class="edge">
<title>adult&#45;&gt;invis_egg</title>
<path fill="none" stroke="#0000ff" stroke-opacity="0.501961" d="M383.3917,-664.2834C392.1044,-681.7088 400.9823,-699.4646 407.9748,-713.4495"/>
<polygon fill="#0000ff" fill-opacity="0.501961" stroke="#0000ff" stroke-opacity="0.501961" points="404.8866,-715.0996 412.4893,-722.4786 411.1476,-711.969 404.8866,-715.0996"/>
</g>
<!-- invis_parlad -->
<g id="node12" class="node">
<title>invis_parlad</title>
</g>
<!-- adult&#45;&gt;invis_parlad -->
<g id="adult_parlad" class="edge">
<title>adult&#45;&gt;invis_parlad</title>
<path fill="none" stroke="#000000" d="M349.5,-520.7047C349.5,-506.5329 349.5,-492.5578 349.5,-480.9836"/>
<polygon fill="#000000" stroke="#000000" points="353.0001,-480.6943 349.5,-470.6944 346.0001,-480.6944 353.0001,-480.6943"/>
</g>
<!-- adult_old -->
<g id="node24" class="node">
<title>adult_old</title>
<text text-anchor="middle" x="61.5" y="-589" font-family="arial" font-size="30.00" fill="#000000">Old Age</text>
</g>
<!-- adult&#45;&gt;adult_old -->
<g id="adult_old" class="edge">
<title>adult&#45;&gt;adult_old</title>
<path fill="none" stroke="#000000" d="M273.8314,-596.5C230.3217,-596.5 175.977,-596.5 133.1596,-596.5"/>
<polygon fill="#000000" stroke="#000000" points="133.0955,-593.0001 123.0955,-596.5 133.0954,-600.0001 133.0955,-593.0001"/>
</g>
<!-- adult_starve -->
<g id="node25" class="node">
<title>adult_starve</title>
<text text-anchor="middle" x="133.5" y="-445" font-family="arial" font-size="30.00" fill="#000000">Starve</text>
</g>
<!-- adult&#45;&gt;adult_starve -->
<g id="adult_starve" class="edge">
<title>adult&#45;&gt;adult_starve</title>
<path fill="none" stroke="#000000" d="M286.4432,-554.4621C249.7928,-530.0285 204.7379,-499.992 173.053,-478.8686"/>
<polygon fill="#000000" stroke="#000000" points="174.7508,-475.7941 164.4888,-473.1592 170.8679,-481.6184 174.7508,-475.7941"/>
</g>
<!-- adult_cull -->
<g id="node26" class="node">
<title>adult_cull</title>
<text text-anchor="middle" x="133.5" y="-733" font-family="arial" font-size="30.00" fill="#000000">Cull</text>
</g>
<!-- adult&#45;&gt;adult_cull -->
<g id="adult_cull" class="edge">
<title>adult&#45;&gt;adult_cull</title>
<path fill="none" stroke="#000000" d="M286.4432,-638.5379C249.7928,-662.9715 204.7379,-693.008 173.053,-714.1314"/>
<polygon fill="#000000" stroke="#000000" points="170.8679,-711.3816 164.4888,-719.8408 174.7508,-717.2059 170.8679,-711.3816"/>
</g>
<!-- egg -->
<g id="egg" class="node">
<title>egg</title>
<ellipse fill="#ffff00" fill-opacity="0.501961" stroke="#000000" cx="493.5" cy="-884.5" rx="60.623" ry="60.623"/>
<text text-anchor="middle" x="493.5" y="-874.5" font-family="arial" font-size="40.00" fill="#000000">Egg</text>
</g>
<!-- invis_larva -->
<g id="node9" class="node">
<title>invis_larva</title>
</g>
<!-- egg&#45;&gt;invis_larva -->
<g id="egg_larva" class="edge">
<title>egg&#45;&gt;invis_larva</title>
<path fill="none" stroke="#000000" d="M520.7201,-830.0598C531.3378,-808.8244 543.0406,-785.4187 551.8191,-767.8617"/>
<polygon fill="#000000" stroke="#000000" points="555.028,-769.2701 556.3697,-758.7605 548.767,-766.1395 555.028,-769.2701"/>
</g>
<!-- egg_cull -->
<g id="node17" class="node">
<title>egg_cull</title>
<text text-anchor="middle" x="493.5" y="-1021" font-family="arial" font-size="30.00" fill="#000000">Cull</text>
</g>
<!-- egg&#45;&gt;egg_cull -->
<g id="egg_cull" class="edge">
<title>egg&#45;&gt;egg_cull</title>
<path fill="none" stroke="#000000" d="M493.5,-945.569C493.5,-963.4571 493.5,-982.2668 493.5,-997.442"/>
<polygon fill="#000000" stroke="#000000" points="490.0001,-997.7845 493.5,-1007.7845 497.0001,-997.7845 490.0001,-997.7845"/>
</g>
<!-- larva -->
<g id="larva" class="node">
<title>larva</title>
<ellipse fill="#00ff00" fill-opacity="0.501961" stroke="#000000" cx="637.5" cy="-596.5" rx="82.0488" ry="82.0488"/>
<text text-anchor="middle" x="637.5" y="-586.5" font-family="arial" font-size="40.00" fill="#000000">Larva</text>
</g>
<!-- invis_adult -->
<g id="node10" class="node">
<title>invis_adult</title>
</g>
<!-- larva&#45;&gt;invis_adult -->
<g id="larva_adult" class="edge">
<title>larva&#45;&gt;invis_adult</title>
<path fill="none" stroke="#000000" d="M555.4047,-596.5C546.8069,-596.5 538.4051,-596.5 530.7028,-596.5"/>
<polygon fill="#000000" stroke="#000000" points="530.6805,-593.0001 520.6805,-596.5 530.6804,-600.0001 530.6805,-593.0001"/>
</g>
<!-- larva_starve -->
<g id="node21" class="node">
<title>larva_starve</title>
<text text-anchor="middle" x="781.5" y="-445" font-family="arial" font-size="30.00" fill="#000000">Starve</text>
</g>
<!-- larva&#45;&gt;larva_starve -->
<g id="larva_larvaStarve" class="edge">
<title>larva&#45;&gt;larva_starve</title>
<path fill="none" stroke="#000000" d="M695.6552,-538.3448C715.6916,-518.3084 737.2144,-496.7856 753.6972,-480.3028"/>
<polygon fill="#000000" stroke="#000000" points="756.296,-482.6537 760.8922,-473.1078 751.3463,-477.704 756.296,-482.6537"/>
</g>
<!-- larva_cull -->
<g id="node22" class="node">
<title>larva_cull</title>
<text text-anchor="middle" x="781.5" y="-733" font-family="arial" font-size="30.00" fill="#000000">Cull</text>
</g>
<!-- larva&#45;&gt;larva_cull -->
<g id="larva_larvaCull" class="edge">
<title>larva&#45;&gt;larva_cull</title>
<path fill="none" stroke="#000000" d="M695.6552,-654.6552C715.6916,-674.6916 737.2144,-696.2144 753.6972,-712.6972"/>
<polygon fill="#000000" stroke="#000000" points="751.3463,-715.296 760.8922,-719.8922 756.296,-710.3463 751.3463,-715.296"/>
</g>
<!-- dauer -->
<g id="dauer" class="node">
<title>dauer</title>
<ellipse fill="#0000ff" fill-opacity="0.501961" stroke="#000000" cx="637.5" cy="-308.5" rx="87.8629" ry="87.8629"/>
<text text-anchor="middle" x="637.5" y="-298.5" font-family="arial" font-size="40.00" fill="#000000">Dauer</text>
</g>
<!-- dauer_starve -->
<g id="node20" class="node">
<title>dauer_starve</title>
<text text-anchor="middle" x="781.5" y="-13" font-family="arial" font-size="30.00" fill="#000000">Starve</text>
</g>
<!-- dauer&#45;&gt;dauer_starve -->
<g id="dauer_dauerStarve" class="edge">
<title>dauer&#45;&gt;dauer_starve</title>
<path fill="none" stroke="#000000" d="M676.8486,-229.8027C706.5146,-170.4708 745.5632,-92.3737 766.575,-50.35"/>
<polygon fill="#000000" stroke="#000000" points="769.8022,-51.7218 771.1439,-41.2122 763.5412,-48.5913 769.8022,-51.7218"/>
</g>
<!-- dauer_cull -->
<g id="node23" class="node">
<title>dauer_cull</title>
<text text-anchor="middle" x="925.5" y="-301" font-family="arial" font-size="30.00" fill="#000000">Cull</text>
</g>
<!-- dauer&#45;&gt;dauer_cull -->
<g id="dauer_dauerCull" class="edge">
<title>dauer&#45;&gt;dauer_cull</title>
<path fill="none" stroke="#000000" d="M725.4744,-308.5C777.0185,-308.5 839.9088,-308.5 881.2447,-308.5"/>
<polygon fill="#000000" stroke="#000000" points="881.2694,-312.0001 891.2694,-308.5 881.2693,-305.0001 881.2694,-312.0001"/>
</g>
<!-- parlad -->
<g id="parlad" class="node">
<title>parlad</title>
<ellipse fill="#800080" fill-opacity="0.501961" stroke="#000000" cx="349.5" cy="-308.5" rx="92.7622" ry="92.7622"/>
<text text-anchor="middle" x="349.5" y="-298.5" font-family="arial" font-size="40.00" fill="#000000">Parlad</text>
</g>
<!-- invis_dauer -->
<g id="node11" class="node">
<title>invis_dauer</title>
</g>
<!-- parlad&#45;&gt;invis_dauer -->
<g id="parlad_dauer" class="edge">
<title>parlad&#45;&gt;invis_dauer</title>
<path fill="none" stroke="#0000ff" stroke-opacity="0.501961" d="M442.3255,-308.5C447.0279,-308.5 451.6005,-308.5 455.9534,-308.5"/>
<polygon fill="#0000ff" fill-opacity="0.501961" stroke="#0000ff" stroke-opacity="0.501961" points="456.2693,-312.0001 466.2692,-308.5 456.2692,-305.0001 456.2693,-312.0001"/>
</g>
<!-- parlad_starve -->
<g id="node18" class="node">
<title>parlad_starve</title>
<text text-anchor="middle" x="205.5" y="-13" font-family="arial" font-size="30.00" fill="#000000">Starve</text>
</g>
<!-- parlad&#45;&gt;parlad_starve -->
<g id="parlad_parladStarve" class="edge">
<title>parlad&#45;&gt;parlad_starve</title>
<path fill="none" stroke="#000000" d="M308.0424,-225.5849C278.6589,-166.8178 240.9446,-91.3892 220.4267,-50.3533"/>
<polygon fill="#000000" stroke="#000000" points="223.4394,-48.5524 215.8367,-41.1734 217.1784,-51.6829 223.4394,-48.5524"/>
</g>
<!-- parlad_cull -->
<g id="node19" class="node">
<title>parlad_cull</title>
<text text-anchor="middle" x="493.5" y="-13" font-family="arial" font-size="30.00" fill="#000000">Cull</text>
</g>
<!-- parlad&#45;&gt;parlad_cull -->
<g id="parlad_parladCull" class="edge">
<title>parlad&#45;&gt;parlad_cull</title>
<path fill="none" stroke="#000000" d="M390.9576,-225.5849C420.3411,-166.8178 458.0554,-91.3892 478.5733,-50.3533"/>
<polygon fill="#000000" stroke="#000000" points="481.8216,-51.6829 483.1633,-41.1734 475.5606,-48.5524 481.8216,-51.6829"/>
</g>
<!-- l1 -->
<g id="l1_arrest" class="node">
<title>l1</title>
<ellipse fill="#ffa500" fill-opacity="0.501961" stroke="#000000" cx="925.5" cy="-596.5" rx="124.4016" ry="124.4016"/>
<text text-anchor="middle" x="925.5" y="-586.5" font-family="arial" font-size="40.00" fill="#000000">L1 Arrest</text>
</g>
<!-- l1_starve -->
<g id="node28" class="node">
<title>l1_starve</title>
<text text-anchor="middle" x="1069.5" y="-445" font-family="arial" font-size="30.00" fill="#000000">Starve</text>
</g>
<!-- l1&#45;&gt;l1_starve -->
<g id="l1_l1Starve" class="edge">
<title>l1&#45;&gt;l1_starve</title>
<path fill="none" stroke="#000000" d="M1013.8258,-508.1742C1023.8102,-498.1898 1033.3523,-488.6477 1041.6283,-480.3717"/>
<polygon fill="#000000" stroke="#000000" points="1044.253,-482.6968 1048.8492,-473.1508 1039.3032,-477.7471 1044.253,-482.6968"/>
</g>
<!-- l1_cull -->
<g id="node29" class="node">
<title>l1_cull</title>
<text text-anchor="middle" x="1069.5" y="-733" font-family="arial" font-size="30.00" fill="#000000">Cull</text>
</g>
<!-- l1&#45;&gt;l1_cull -->
<g id="l1_l1Cull" class="edge">
<title>l1&#45;&gt;l1_cull</title>
<path fill="none" stroke="#000000" d="M1013.8258,-684.8258C1023.8102,-694.8102 1033.3523,-704.3523 1041.6283,-712.6283"/>
<polygon fill="#000000" stroke="#000000" points="1039.3032,-715.253 1048.8492,-719.8492 1044.253,-710.3032 1039.3032,-715.253"/>
</g>
<!-- invis_l1_a -->
<g id="node7" class="node">
<title>invis_l1_a</title>
<ellipse fill="none" stroke="#000000" cx="637.5" cy="-596.5" rx="29.795" ry="18"/>
<text text-anchor="middle" x="637.5" y="-592.8" font-family="arial" font-size="14.00" fill="#000000">invis</text>
</g>
<!-- invis_dauer_larva_a -->
<g id="node13" class="node">
<title>invis_dauer_larva_a</title>
</g>
<!-- invis_dauer_larva_b -->
<g id="node14" class="node">
<title>invis_dauer_larva_b</title>
</g>
<!-- invis_dauer_larva_a&#45;&gt;invis_dauer_larva_b -->
<g id="dauer_larva" class="edge">
<title>invis_dauer_larva_a&#45;&gt;invis_dauer_larva_b</title>
<path fill="none" stroke="#000000" d="M565.5,-398.6686C565.5,-406.369 565.5,-415.5257 565.5,-424.0834"/>
<polygon fill="#000000" stroke="#000000" points="562.0001,-424.0867 565.5,-434.0867 569.0001,-424.0868 562.0001,-424.0867"/>
</g>
<!-- invis_larva_dauer_b -->
<g id="node15" class="node">
<title>invis_larva_dauer_b</title>
</g>
<!-- invis_larva_dauer_a -->
<g id="node16" class="node">
<title>invis_larva_dauer_a</title>
</g>
<!-- invis_larva_dauer_a&#45;&gt;invis_larva_dauer_b -->
<g id="larva_dauer" class="edge">
<title>invis_larva_dauer_a&#45;&gt;invis_larva_dauer_b</title>
<path fill="none" stroke="#000000" d="M709.5,-506.3314C709.5,-498.631 709.5,-489.4744 709.5,-480.9166"/>
<polygon fill="#000000" stroke="#000000" points="713.0001,-480.9132 709.5,-470.9133 706.0001,-480.9133 713.0001,-480.9132"/>
</g>
<!-- adult_old_invis -->
<g id="node27" class="node">
<title>adult_old_invis</title>
</g>
</g>
</svg>
